<svg xmlns="http://www.w3.org/2000/svg" xmlns:svg="http://www.w3.org/2000/svg" xmlns:xlink="http://www.w3.org/1999/xlink" id="svg3049" width="128" height="128" version="1.1"><defs id="defs3051"><linearGradient id="linearGradient3924"><stop id="stop3926" offset="0" style="stop-color:#fff;stop-opacity:1"/><stop id="stop3928" offset=".063" style="stop-color:#fff;stop-opacity:.23529412"/><stop id="stop3930" offset=".951" style="stop-color:#fff;stop-opacity:.15686275"/><stop id="stop3932" offset="1" style="stop-color:#fff;stop-opacity:.39215687"/></linearGradient><linearGradient id="linearGradient3688-166-749-5"><stop id="stop2883-0" offset="0" style="stop-color:#181818;stop-opacity:1"/><stop id="stop2885-5" offset="1" style="stop-color:#181818;stop-opacity:0"/></linearGradient><linearGradient id="linearGradient3688-464-309-8"><stop id="stop2889-9" offset="0" style="stop-color:#181818;stop-opacity:1"/><stop id="stop2891-4" offset="1" style="stop-color:#181818;stop-opacity:0"/></linearGradient><linearGradient id="linearGradient3702-501-757-0"><stop id="stop2895-0" offset="0" style="stop-color:#181818;stop-opacity:0"/><stop id="stop2897-2" offset=".5" style="stop-color:#181818;stop-opacity:1"/><stop id="stop2899-6" offset="1" style="stop-color:#181818;stop-opacity:0"/></linearGradient><linearGradient id="linearGradient3811"><stop id="stop3813" offset="0" style="stop-color:#000;stop-opacity:1"/><stop id="stop3815" offset="1" style="stop-color:#000;stop-opacity:0"/></linearGradient><radialGradient id="radialGradient3946" cx="4.993" cy="43.5" r="2.5" fx="4.993" fy="43.5" gradientTransform="matrix(2.003784,0,0,1.4,27.98813,-17.4)" gradientUnits="userSpaceOnUse" xlink:href="#linearGradient3688-166-749-5"/><radialGradient id="radialGradient3948" cx="4.993" cy="43.5" r="2.5" fx="4.993" fy="43.5" gradientTransform="matrix(2.003784,0,0,1.4,-20.01187,-104.4)" gradientUnits="userSpaceOnUse" xlink:href="#linearGradient3688-464-309-8"/><linearGradient id="linearGradient3950" x1="25.058" x2="25.058" y1="47.028" y2="39.999" gradientUnits="userSpaceOnUse" xlink:href="#linearGradient3702-501-757-0"/><linearGradient id="linearGradient3965" x1="24" x2="24" y1="5" y2="43" gradientTransform="matrix(2.7297298,0,0,2.7297298,-1.5135175,1.488319)" gradientUnits="userSpaceOnUse" xlink:href="#linearGradient3924"/><radialGradient id="radialGradient3976" cx="-4.029" cy="93.468" r="35.338" fx="-4.029" fy="93.468" gradientTransform="matrix(1.5563924,0,0,0.16978827,70.270355,102.1321)" gradientUnits="userSpaceOnUse" xlink:href="#linearGradient3811"/><linearGradient id="linearGradient856-2-3" x1="49.093" x2="49.093" y1="16.449" y2="96.292" gradientTransform="matrix(1.3965646,0,0,1.3965646,-5.1680553,-6.5372613)" gradientUnits="userSpaceOnUse" xlink:href="#linearGradient3600-9-51"/><linearGradient id="linearGradient3483" x1="-42.49" x2="-42.49" y1="8.816" y2="18.626" gradientTransform="matrix(-2.5961601,0,0,2.5961601,-81.4778,62.81478)" gradientUnits="userSpaceOnUse" xlink:href="#linearGradient841"/><linearGradient id="linearGradient841"><stop id="stop837" offset="0" style="stop-color:#fff394;stop-opacity:1"/><stop id="stop839" offset="1" style="stop-color:#fff;stop-opacity:1"/></linearGradient><radialGradient id="radialGradient4310" cx="7.804" cy="73" r="30.5" fx="7.804" fy="73" gradientTransform="matrix(1.9850623,3.8276955e-8,0,2.3131061,8.7012924,-24.442018)" gradientUnits="userSpaceOnUse" xlink:href="#linearGradient4304"/><linearGradient id="linearGradient4304"><stop style="stop-color:#ffe6ab;stop-opacity:1" id="stop4306" offset="0"/><stop id="stop4312" offset=".82" style="stop-color:#ffa154;stop-opacity:1"/><stop style="stop-color:#ffc27d;stop-opacity:0" id="stop4308" offset="1"/></linearGradient><linearGradient id="linearGradient4487"><stop id="stop4489" offset="0" style="stop-color:#feaf9d;stop-opacity:1"/><stop id="stop4491" offset="1" style="stop-color:#7239b3;stop-opacity:1"/></linearGradient><linearGradient id="linearGradient9328" x1="-51.786" x2="-51.786" y1="50.786" y2="2.906" gradientTransform="matrix(0.80749686,0,0,0.89471714,-213.62754,26.181163)" gradientUnits="userSpaceOnUse" xlink:href="#linearGradient3104-6"/><linearGradient id="linearGradient3104-6"><stop style="stop-color:#000;stop-opacity:.31782946" id="stop3106-3" offset="0"/><stop style="stop-color:#000;stop-opacity:.24031007" id="stop3108-9" offset="1"/></linearGradient><linearGradient id="linearGradient3600-9-51"><stop style="stop-color:#f4f4f4;stop-opacity:1" id="stop3602-0-0" offset="0"/><stop style="stop-color:#dbdbdb;stop-opacity:1" id="stop3604-9-04" offset="1"/></linearGradient><linearGradient id="linearGradient2107" x1="77.277" x2="53.716" y1="15.326" y2="103.256" gradientTransform="matrix(1.3965646,0,0,1.3965646,-5.1680553,-6.5372613)" gradientUnits="userSpaceOnUse" xlink:href="#linearGradient3600-9-51"/><linearGradient id="linearGradient2109" x1="-51.786" x2="-51.786" y1="50.786" y2="2.906" gradientTransform="matrix(0.80749686,0,0,0.89471714,-213.62754,26.181163)" gradientUnits="userSpaceOnUse" xlink:href="#linearGradient3104-6"/><linearGradient id="linearGradient2111" x1="24" x2="24" y1="5" y2="43" gradientTransform="matrix(2.7297298,0,0,2.7297298,-1.5135175,1.488319)" gradientUnits="userSpaceOnUse" xlink:href="#linearGradient3924"/><linearGradient id="linearGradient2619" x1="93.278" x2="93.278" y1="363.343" y2="7.361" gradientTransform="matrix(0.32530289,0,0,0.25113452,31.606468,20.370975)" gradientUnits="userSpaceOnUse" xlink:href="#linearGradient4487"/></defs><metadata id="metadata3054"/><g id="g2125" transform="rotate(-15,42.462616,64.166315)"><rect style="color:#000;font-variation-settings:normal;display:inline;overflow:visible;visibility:visible;vector-effect:none;fill:url(#linearGradient2107);fill-opacity:1;fill-rule:nonzero;stroke:none;stroke-width:.999996;stroke-linecap:butt;stroke-linejoin:miter;stroke-miterlimit:4;stroke-dasharray:none;stroke-dashoffset:0;stroke-opacity:.5;marker:none;enable-background:accumulate;stop-color:#000" id="rect5505-21-3-6" width="102" height="102" x="13" y="16" rx="9.5" ry="9.5"/><rect style="color:#000;font-variation-settings:normal;display:inline;overflow:visible;visibility:visible;vector-effect:none;fill:none;fill-opacity:1;fill-rule:nonzero;stroke:url(#linearGradient2109);stroke-width:.999922;stroke-linecap:butt;stroke-linejoin:round;stroke-miterlimit:4;stroke-dasharray:none;stroke-dashoffset:0;stroke-opacity:1;-inkscape-stroke:none;marker:none;enable-background:accumulate;stop-color:#000" id="rect5505-21-3-5-0" width="103" height="103" x="12.5" y="15.502" rx="10" ry="10"/><rect style="fill:none;stroke:url(#linearGradient2111);stroke-width:1;stroke-linecap:round;stroke-linejoin:round;stroke-miterlimit:4;stroke-dasharray:none;stroke-dashoffset:0;stroke-opacity:1" id="rect6741-7-6" width="101" height="101" x="13.5" y="16.502" rx="9" ry="9"/><rect style="color:#000;display:inline;overflow:visible;visibility:visible;opacity:.5;fill:none;stroke:none;stroke-width:1;stroke-linecap:round;stroke-linejoin:round;stroke-miterlimit:4;stroke-dasharray:none;stroke-dashoffset:0;stroke-opacity:1;marker:none;enable-background:accumulate" id="rect5505-21-3-1-2" width="103" height="103" x="12.5" y="15.502" rx="10" ry="10"/><rect style="color:#000;font-variation-settings:normal;display:inline;overflow:visible;visibility:visible;vector-effect:none;fill:#844e98;fill-opacity:1;fill-rule:nonzero;stroke:none;stroke-width:.999983;stroke-linecap:butt;stroke-linejoin:miter;stroke-miterlimit:4;stroke-dasharray:none;stroke-dashoffset:0;stroke-opacity:1;-inkscape-stroke:none;marker:none;enable-background:accumulate;stop-color:#000" id="rect5505-21-1-7-0-09-0-2-7-6" width="90" height="90" x="19" y="22" rx="3.5" ry="3.5"/><rect style="color:#000;font-variation-settings:normal;display:inline;overflow:visible;visibility:visible;opacity:.15;vector-effect:none;fill:none;fill-opacity:1;fill-rule:nonzero;stroke:#24004d;stroke-width:.99999;stroke-linecap:butt;stroke-linejoin:miter;stroke-miterlimit:4;stroke-dasharray:none;stroke-dashoffset:0;stroke-opacity:1;-inkscape-stroke:none;marker:none;enable-background:accumulate;stop-color:#000" id="rect5505-21-1-7-0-09-0-2-9-9-1" width="89" height="89" x="19.5" y="22.5" rx="3" ry="3"/></g><path style="opacity:.2;color:#000;fill:url(#radialGradient3976);fill-opacity:1;fill-rule:nonzero;stroke:none;stroke-width:1;marker:none;visibility:visible;display:inline;overflow:visible;enable-background:accumulate" id="path3041" d="m 119,118.00181 a 55,6 0 0 1 -109.9999975,0 55,6 0 1 1 109.9999975,0 z"/><g style="display:inline" id="g2036" transform="matrix(2.6999989,0,0,0.55555607,-0.8000075,94.890689)"><g style="opacity:.4" id="g3712" transform="matrix(1.052632,0,0,1.285713,-1.263158,-13.42854)"><rect style="fill:url(#radialGradient3946);fill-opacity:1;stroke:none" id="rect2801" width="5" height="7" x="38" y="40"/><rect style="fill:url(#radialGradient3948);fill-opacity:1;stroke:none" id="rect3696" width="5" height="7" x="-10" y="-47" transform="scale(-1,-1)"/><rect style="fill:url(#linearGradient3950);fill-opacity:1;stroke:none" id="rect3700" width="28" height="7" x="10" y="40"/></g></g><rect style="color:#000;font-variation-settings:normal;display:inline;overflow:visible;visibility:visible;opacity:1;vector-effect:none;fill:url(#linearGradient856-2-3);fill-opacity:1;fill-rule:nonzero;stroke:none;stroke-width:.999996;stroke-linecap:butt;stroke-linejoin:miter;stroke-miterlimit:4;stroke-dasharray:none;stroke-dashoffset:0;stroke-opacity:.5;marker:none;enable-background:accumulate;stop-color:#000;stop-opacity:1" id="rect5505-21-3" width="102" height="102" x="13" y="16" rx="9.5" ry="9.5"/><rect style="color:#000;font-variation-settings:normal;display:inline;overflow:visible;visibility:visible;vector-effect:none;fill:none;fill-opacity:1;fill-rule:nonzero;stroke:url(#linearGradient9328);stroke-width:.999922;stroke-linecap:butt;stroke-linejoin:round;stroke-miterlimit:4;stroke-dasharray:none;stroke-dashoffset:0;stroke-opacity:1;marker:none;enable-background:accumulate;stop-color:#000;opacity:1;-inkscape-stroke:none;stop-opacity:1" id="rect5505-21-3-5" width="103" height="103" x="12.5" y="15.502" rx="10" ry="10"/><rect style="opacity:1;fill:none;stroke:url(#linearGradient3965);stroke-width:1;stroke-linecap:round;stroke-linejoin:round;stroke-miterlimit:4;stroke-dasharray:none;stroke-dashoffset:0;stroke-opacity:1" id="rect6741-7" width="101" height="101" x="13.5" y="16.502" rx="9" ry="9"/><rect style="color:#000;display:inline;overflow:visible;visibility:visible;opacity:.5;fill:none;stroke:none;stroke-width:1;stroke-linecap:round;stroke-linejoin:round;stroke-miterlimit:4;stroke-dasharray:none;stroke-dashoffset:0;stroke-opacity:1;marker:none;enable-background:accumulate" id="rect5505-21-3-1" width="103" height="103" x="12.5" y="15.502" rx="10" ry="10"/><rect style="color:#000;font-variation-settings:normal;display:inline;overflow:visible;visibility:visible;vector-effect:none;fill:url(#linearGradient2619);fill-opacity:1;fill-rule:nonzero;stroke:none;stroke-width:1;stroke-linecap:round;stroke-linejoin:miter;stroke-miterlimit:4;stroke-dasharray:none;stroke-dashoffset:0;stroke-opacity:1;-inkscape-stroke:none;marker:none;enable-background:accumulate;stop-color:#000;opacity:1;stop-opacity:1" id="rect5505-21-1-7-0-09-0-2-7" width="90" height="90" x="19" y="22" rx="3.5" ry="3.5"/><rect style="color:#000;font-variation-settings:normal;display:inline;overflow:visible;visibility:visible;opacity:.3;vector-effect:none;fill:none;fill-opacity:1;fill-rule:nonzero;stroke:#452981;stroke-width:1;stroke-linecap:butt;stroke-linejoin:miter;stroke-miterlimit:4;stroke-dasharray:none;stroke-dashoffset:0;stroke-opacity:1;-inkscape-stroke:none;marker:none;enable-background:accumulate;stop-color:#000;stop-opacity:1" id="rect5505-21-1-7-0-09-0-2-9-9" width="89" height="89" x="19.5" y="22.5" rx="3" ry="3"/><path id="path4427" d="m 60.396425,22.000225 c -0.0169,0.169837 0.002,0.336337 0.0806,0.505372 0.26719,0.572816 1.0689,0.654468 2.09473,0.205087 0.91517,-0.400882 1.7946,-0.454908 1.95557,-0.109875 0.16087,0.345075 -0.15413,0.828795 -0.70313,1.069335 -1.30929,0.573536 -1.1559,0.797456 1.97755,2.944337 2.4258,1.662041 2.88494,1.714443 5.45652,0.593261 2.22298,-0.969168 2.8197,-0.994413 2.86378,-0.117187 0.0323,0.641921 0.44787,0.960393 0.98145,0.754394 0.50695,-0.195712 0.36537,0.188813 -0.30761,0.856931 -0.79237,0.786585 -0.92685,1.493276 -0.38087,2.006834 0.71391,0.671479 0.0619,1.135578 -4.28465,3.03955 -5.5737,2.441538 -11.09366,6.357972 -14.42139,10.23193 -2.07073,2.410611 -5.95327,10.528323 -5.50048,11.499013 0.12675,0.271763 1.28783,0.03806 2.57813,-0.527343 1.92935,-0.845167 2.33743,-1.395228 2.30709,-3.090812 l -0.0367,-2.058108 0.97412,1.384278 0.98145,1.391602 0.79834,-2.556153 c 0.74923,-2.376047 0.82612,-2.432849 1.14989,-0.944823 0.21499,0.988049 0.76602,1.567582 1.44287,1.523437 0.81638,-0.05333 1.05705,0.300974 0.96681,1.413573 -0.10988,1.353843 0.13856,1.375398 2.70995,0.249037 2.27713,-0.997488 2.96413,-1.692419 3.52296,-3.610836 l 0.68846,-2.387695 0.92286,1.867676 c 0.87875,1.772961 0.94348,1.779239 1.33301,0.212399 0.35692,-1.435176 0.47664,-1.503794 0.90819,-0.578613 0.35933,0.770295 1.06648,0.808657 2.57812,0.146475 1.94423,-0.85167 1.84463,-0.569685 -1.41356,4.284665 -1.91911,2.859273 -4.62886,8.216876 -6.02784,11.90185 -2.43474,6.413206 -5.02715,17.220516 -4.02099,16.779776 1.38945,-0.60864 7.23238,-5.71385 7.03125,-6.14501 -0.12919,-0.27713 -0.2802,-1.44452 -0.32959,-2.59278 -0.0889,-2.06657 -0.0643,-2.07789 1.15723,-0.93017 1.72498,1.62073 3.11449,0.7538 3.0542,-1.9043 -0.0536,-2.366371 0.82864,-3.39863 1.56006,-1.83105 0.35535,0.76178 0.6651,0.66542 1.75781,-0.520021 0.99323,-1.077544 1.10884,-1.920543 0.44678,-3.339843 -0.81576,-1.748766 -0.77241,-1.845021 0.54932,-1.142575 1.49634,0.795273 2.82911,-0.2013 2.16796,-1.618653 -0.25038,-0.536805 0.25257,-0.96585 1.45751,-1.25244 1.0087,-0.239925 1.81178,-0.212137 1.78712,0.05861 -0.40873,4.481041 -0.48107,15.282752 -0.1245,19.299312 0.42947,4.83953 2.86802,13.59232 3.68408,13.23485 0.19755,-0.0865 1.24361,-3.00818 2.3291,-6.49658 1.25634,-4.03738 1.68311,-6.69503 1.16454,-7.30956 -0.60041,-0.71151 -0.4209,-1.14094 0.70313,-1.6333 1.77124,-0.77589 2.65391,-4.27743 1.37696,-5.47851 -0.62241,-0.58544 -0.5148,-0.82672 0.39549,-0.88623 1.57613,-0.10294 1.38428,-0.52447 -1.14989,-2.43897 -1.99995,-1.510952 -2.0094,-1.528869 -0.2124,-1.010743 1.00119,0.288673 2.02479,0.444583 2.27051,0.336903 0.70543,-0.309041 -0.5985,-2.632498 -1.53808,-2.739261 -0.46555,-0.05291 -0.99338,-0.387453 -1.16455,-0.754394 -0.1974,-0.423255 0.19017,-0.545771 1.04736,-0.329588 2.39042,0.602902 3.30204,-1.103883 1.69922,-3.186036 -0.77772,-1.010276 -1.83027,-2.037003 -2.33642,-2.277831 -0.64335,-0.306113 -0.37189,-0.563269 0.89355,-0.864255 1.1022,-0.262162 1.667,-0.722771 1.45751,-1.171874 -0.1893,-0.405679 0.0337,-0.695614 0.48339,-0.644535 0.4497,0.05108 1.03508,-1.200378 1.30373,-2.7832 0.26861,-1.582814 0.66195,-2.96119 0.8789,-3.061521 6.109855,6.166441 10.562695,35.426585 11.608865,52.617163 h 1.01818 V 60.518271 c -3.09598,-6.448054 -6.36834,-11.998828 -9.323725,-14.956046 -3.6983,-3.700611 -3.8676,-4.24084 -1.05469,-3.40576 1.575145,0.467628 1.678985,0.381334 1.589365,-1.267087 -0.0919,-1.690304 -0.0375,-1.676107 1.3916,0.234375 1.16653,1.55953 2.50343,2.163183 6.15234,2.7832 0.47213,0.08025 0.80486,0.121762 1.24511,0.190425 V 28.841043 c -0.0774,3.22e-4 -0.14943,-0.0079 -0.22706,-0.0075 l -3.25194,0.02925 2.43163,-1.083982 c 0.3618,-0.160913 0.69397,-0.355388 1.00342,-0.549319 0,0 0.0334,-1.054509 0.0334,-1.581777 C 108.98941,23.482734 107.45788,22 105.21633,22 h -5.422885 l -7.00194,3.098143 -0.40285,-2.160644 C 92.337055,22.663037 92.228155,22.317418 92.146975,22 h -10.84715 c -0.004,0.0041 0.006,0.04189 0,0.04395 -0.0217,0.0086 -0.13088,-0.03829 -0.17569,-0.04395 z m 18.14209,19.438468 c 0.0572,-0.0105 0.10913,-0.0067 0.16106,0 0.72724,0.09375 0.8436,1.871669 0.0221,2.88574 -0.54146,0.667376 -1.16743,1.286058 -1.39161,1.384278 -0.58254,0.255187 0.43504,-3.916851 1.02539,-4.204101 0.0641,-0.03112 0.126,-0.05557 0.18318,-0.06592 z" style="opacity:.7;fill:#452981;fill-opacity:1;stroke-width:1"/><path id="path140458-1" d="m 27.488752,72.830103 a 50.258477,50.258477 0 0 0 -8.48876,0.79833 V 106.375 c 0,3.11626 2.50875,5.625 5.625,5.625 h 51.87008 A 50.258477,50.258477 0 0 0 27.488752,72.830103 Z" style="font-variation-settings:normal;opacity:.6;vector-effect:none;fill:url(#radialGradient4310);fill-opacity:1;stroke:none;stroke-width:1px;stroke-linecap:butt;stroke-linejoin:miter;stroke-miterlimit:4;stroke-dasharray:none;stroke-dashoffset:0;stroke-opacity:1;-inkscape-stroke:none;marker:none;stop-color:#000"/><path id="path140458" d="M 27.488281,86.035156 C 24.626601,86.064956 21.7785,86.427731 19,87.113281 V 108.5 c 0,1.939 1.561,3.5 3.5,3.5 H 62.828125 C 57.985645,96.554193 43.675391,86.040116 27.488281,86.035156 Z" style="font-variation-settings:normal;vector-effect:none;fill:url(#linearGradient3483);fill-opacity:1;stroke:none;stroke-width:1;stroke-linecap:round;stroke-linejoin:round;stroke-miterlimit:4;stroke-dasharray:none;stroke-dashoffset:0;stroke-opacity:.5;-inkscape-stroke:none;marker:none;stop-color:#000"/><path id="path2555-7-6-5-2" d="m 19.499992,86.865725 v 21.618635 c 0.0046,1.65476 1.351925,3.01564 2.910383,3.01564 h 40.440046" style="color:#000;font-variation-settings:normal;clip-rule:nonzero;display:inline;overflow:visible;visibility:visible;opacity:.3;isolation:auto;mix-blend-mode:normal;color-interpolation:sRGB;color-interpolation-filters:linearRGB;solid-color:#000;solid-opacity:1;vector-effect:none;fill:none;fill-opacity:1;fill-rule:evenodd;stroke:#cc3b02;stroke-width:1;stroke-linecap:butt;stroke-linejoin:round;stroke-miterlimit:4;stroke-dasharray:none;stroke-dashoffset:0;stroke-opacity:1;-inkscape-stroke:none;marker:none;color-rendering:auto;image-rendering:auto;shape-rendering:auto;text-rendering:auto;enable-background:accumulate;stop-color:#000"/></svg>