<svg xmlns="http://www.w3.org/2000/svg" xmlns:svg="http://www.w3.org/2000/svg" id="svg7384" width="16" height="16" version="1.1"><metadata id="metadata90"/><title id="title9167">elementary Symbolic Icon Theme</title><defs id="defs7386"><filter id="filter7554" style="color-interpolation-filters:sRGB"><feBlend id="feBlend7556" in2="BackgroundImage" mode="darken"/></filter><filter id="filter7554-7" style="color-interpolation-filters:sRGB"><feBlend id="feBlend7556-6" in2="BackgroundImage" mode="darken"/></filter></defs><path style="color:#000;clip-rule:nonzero;display:inline;overflow:visible;visibility:visible;opacity:1;isolation:auto;mix-blend-mode:normal;color-interpolation:sRGB;color-interpolation-filters:linearRGB;solid-color:#000;solid-opacity:1;fill:#bebebe;fill-opacity:1;fill-rule:nonzero;stroke:none;stroke-width:1;stroke-linecap:butt;stroke-linejoin:miter;stroke-miterlimit:4;stroke-dasharray:none;stroke-dashoffset:0;stroke-opacity:1;marker:none;color-rendering:auto;image-rendering:auto;shape-rendering:auto;text-rendering:auto;enable-background:accumulate" id="path4172" d="m 8,1.0000005 a 7,7 0 0 0 -3.083984,0.724609 c -0.0019,-7.33e-4 -0.0039,-0.0012 -0.0059,-0.002 -0.02957,0.01466 -0.05658,0.03376 -0.08594,0.04883 a 7,7 0 0 0 -0.404297,0.222653 c -0.04793,0.02875 -0.09535,0.058 -0.142578,0.08789 a 7,7 0 0 0 -0.453125,0.310547 c -0.0071,0.0053 -0.01442,0.01029 -0.02148,0.01563 A 7,7 0 0 0 1,8.0000005 7,7 0 0 0 1.0078,8.1640625 c 7.71e-4,0.02934 0.0028,0.05856 0.0039,0.08789 a 7,7 0 0 0 3.097656,5.5605465 c 1.03e-4,6.41e-4 -1.04e-4,0.0013 0,0.002 0.0059,0.0039 0.01169,0.0078 0.01758,0.01172 a 7,7 0 0 0 0.474609,0.283203 c 0.02917,0.01612 0.05654,0.03508 0.08594,0.05078 a 7,7 0 0 0 0.570332,0.271437 7,7 0 0 0 2.742188,0.56836 7,7 0 0 0 3.083984,-0.72461 c 0.0019,7.33e-4 0.0039,0.0012 0.0059,0.002 0.02957,-0.01466 0.05658,-0.03375 0.08594,-0.04883 a 7,7 0 0 0 0.404297,-0.222656 c 0.04793,-0.02876 0.09535,-0.058 0.142578,-0.08789 a 7,7 0 0 0 0.453125,-0.310546 7,7 0 0 0 0.02149,-0.01563 A 7,7 0 0 0 15,7.9999995 7,7 0 0 0 14.9922,7.8359365 c -7.72e-4,-0.02934 -0.0028,-0.05856 -0.0039,-0.08789 a 7,7 0 0 0 -3.097663,-5.560546 c -1.03e-4,-6.42e-4 1.03e-4,-0.0013 0,-0.002 -0.0059,-0.0039 -0.01169,-0.0078 -0.01758,-0.01172 a 7,7 0 0 0 -0.474609,-0.283206 c -0.02917,-0.01612 -0.05654,-0.03508 -0.08594,-0.05078 A 7,7 0 0 0 10.742188,1.5683095 7,7 0 0 0 8,1.0000005 Z m 0,1 a 6,6 0 0 1 2.955078,0.783203 c 0.152357,1.317936 0.03383,2.643104 -0.328125,3.904297 C 9.590736,4.8107315 8.030441,3.2954785 6.154297,2.2988285 A 6,6 0 0 1 8,2.0000005 Z m -3.037109,0.833984 c 1.21653,0.527047 2.304253,1.290903 3.214843,2.234375 -2.146553,-0.04143 -4.241812,0.554267 -6.044922,1.683594 a 6,6 0 0 1 2.830079,-3.917969 z m 7.052734,0.716797 a 6,6 0 0 1 1.982422,4.398437 c -1.065399,0.791628 -2.273195,1.3524379 -3.546875,1.669922 1.107448,-1.835787 1.639283,-3.945138 1.564453,-6.068359 z M 8.21875,5.1093755 c 0.79881,0.837327 1.461801,1.809374 1.935547,2.8945311 0.179557,-0.4017641 0.328009,-0.8164371 0.453125,-1.2382811 -0.326117,1.102776 -0.834744,2.1547261 -1.533203,3.101562 0.441433,-0.04576 0.879135,-0.12459 1.310547,-0.228515 C 9.262859,9.9100894 8.093525,9.9952415 6.919922,9.8632814 7.182387,10.225608 7.472704,10.56669 7.78125,10.890625 6.98244,10.053297 6.319449,9.0812514 5.845703,7.9960935 5.666147,8.3978576 5.517694,8.8125305 5.392578,9.2343754 5.718695,8.1315986 6.227321,7.0796485 6.925781,6.1328125 6.484348,6.1785825 6.046646,6.2574035 5.615234,6.3613285 6.737141,6.0899115 7.906476,6.0047585 9.080078,6.1367185 8.817613,5.7743915 8.527296,5.4333095 8.21875,5.1093755 Z M 5.548828,6.3808595 C 4.441378,8.2166455 3.909545,10.325997 3.984375,12.449218 A 6,6 0 0 1 2.001953,8.0507815 c 1.065399,-0.791628 2.273195,-1.352438 3.546875,-1.669922 z m 8.31836,2.8671869 A 6,6 0 0 1 11.037109,13.166015 C 9.820579,12.638968 8.732856,11.875112 7.822266,10.93164 c 2.146553,0.04143 4.241811,-0.554267 6.044922,-1.6835936 z m -8.494141,0.06445 C 6.409262,11.189265 7.969559,12.704518 9.845703,13.701168 A 6,6 0 0 1 8,14 6,6 0 0 1 5.044922,13.216796 C 4.892565,11.89886 5.011092,10.573692 5.373047,9.3125004 Z"/></svg>