<svg xmlns="http://www.w3.org/2000/svg" xmlns:svg="http://www.w3.org/2000/svg" id="svg7384" width="16" height="16" version="1.1"><metadata id="metadata90"/><title id="title9167">elementary Symbolic Icon Theme</title><defs id="defs7386"><filter id="filter7554" style="color-interpolation-filters:sRGB"><feBlend id="feBlend7556" in2="BackgroundImage" mode="darken"/></filter><filter id="filter7554-7" style="color-interpolation-filters:sRGB"><feBlend id="feBlend7556-6" in2="BackgroundImage" mode="darken"/></filter></defs><path style="color:#000;clip-rule:nonzero;display:inline;overflow:visible;visibility:visible;opacity:1;isolation:auto;mix-blend-mode:normal;color-interpolation:sRGB;color-interpolation-filters:linearRGB;solid-color:#000;solid-opacity:1;fill:#bebebe;fill-opacity:1;fill-rule:nonzero;stroke:none;stroke-width:1;stroke-linecap:butt;stroke-linejoin:miter;stroke-miterlimit:4;stroke-dasharray:none;stroke-dashoffset:0;stroke-opacity:1;marker:none;color-rendering:auto;image-rendering:auto;shape-rendering:auto;text-rendering:auto;enable-background:accumulate" id="path4172-1" d="M 7,0 C 6.446,0 6,0.446 6,1 6,1.554 6.446,2 7,2 L 8,2 9,2 C 9.554,2 10,1.554 10,1 10,0.446 9.554,0 9,0 L 7,0 Z M 8,2 A 7,7 0 0 0 1,9 7,7 0 0 0 8,16 7,7 0 0 0 15,9 7,7 0 0 0 8,2 Z M 8,3 A 6,6 0 0 1 14,9 6,6 0 0 1 8,15 6,6 0 0 1 2,9 6,6 0 0 1 8,3 Z M 9.294922,4.169922 8,9 12.330078,6.5 A 5,5 0 0 0 9.294922,4.169922 Z"/></svg>