<svg xmlns="http://www.w3.org/2000/svg" xmlns:svg="http://www.w3.org/2000/svg" xmlns:xlink="http://www.w3.org/1999/xlink" id="svg4708" width="24" height="24" version="1.1"><defs id="defs4710"><radialGradient id="radialGradient4643" cx="6.703" cy="73.616" r="7.228" fx="6.703" fy="73.616" gradientTransform="matrix(1.6600963,0,0,0.36315008,0.963735,1.732331)" gradientUnits="userSpaceOnUse" xlink:href="#linearGradient10691-3"/><linearGradient id="linearGradient10691-3"><stop style="stop-color:#000;stop-opacity:1" id="stop10693-1" offset="0"/><stop style="stop-color:#000;stop-opacity:0" id="stop10695-4" offset="1"/></linearGradient><linearGradient id="linearGradient3339"><stop id="stop3341" offset="0" style="stop-color:#fff;stop-opacity:1"/><stop id="stop3343" offset="1" style="stop-color:#fff;stop-opacity:0"/></linearGradient><linearGradient id="linearGradient3251"><stop id="stop3253" offset="0" style="stop-color:#fff;stop-opacity:1"/><stop id="stop3255" offset="1" style="stop-color:#fff;stop-opacity:0"/></linearGradient><radialGradient id="radialGradient3097" cx="32.5" cy="16.563" r="14.438" fx="32.5" fy="16.563" gradientTransform="matrix(0.13600338,0.32887282,-0.25782279,0.11298813,11.149645,0.46214313)" gradientUnits="userSpaceOnUse" xlink:href="#linearGradient3251"/><linearGradient id="linearGradient3100" x1="31" x2="3.259" y1="12.875" y2="24.894" gradientTransform="matrix(0.29271808,0,0,0.4253276,1.0176487,8.2866679)" gradientUnits="userSpaceOnUse" xlink:href="#linearGradient3339"/><linearGradient id="linearGradient3220-2-2"><stop id="stop3222-7-1" offset="0" style="stop-color:#2e3436;stop-opacity:1"/><stop id="stop3228-2-8" offset=".644" style="stop-color:#888a85;stop-opacity:1"/><stop id="stop3224-9-9" offset="1" style="stop-color:#555753;stop-opacity:1"/></linearGradient><linearGradient id="linearGradient3338-5-6"><stop id="stop3340-8-1" offset="0" style="stop-color:#eeeeec;stop-opacity:1"/><stop id="stop2677-0-5" offset=".789" style="stop-color:#fff;stop-opacity:1"/><stop id="stop3342-6-9" offset="1" style="stop-color:#eeeeec;stop-opacity:1"/></linearGradient><linearGradient id="linearGradient4203" x1="-32.957" x2="-25.474" y1="27.389" y2="27.389" gradientTransform="matrix(0.26725589,0,0,1.157552,9.315594,-10.704165)" gradientUnits="userSpaceOnUse" xlink:href="#linearGradient3220-2-2"/><linearGradient id="linearGradient4205" x1="27.528" x2="30.42" y1="4.167" y2="2.949" gradientTransform="matrix(0.77602087,0.23906428,-0.31605097,0.56747902,-20.167798,4.551095)" gradientUnits="userSpaceOnUse" xlink:href="#linearGradient3338-5-6"/></defs><metadata id="metadata4713"/><g id="layer1" transform="translate(0,-8)"><path style="opacity:.2;fill:url(#radialGradient4643);fill-opacity:1;fill-rule:nonzero;stroke:none;stroke-width:.80000001;marker:none;visibility:visible;display:inline;overflow:visible" id="path10689" d="m 24.090748,28.465883 c 0,1.449748 -5.372523,2.625 -11.999865,2.625 -6.627343,0 -11.999865,-1.175252 -11.999865,-2.625 0,-1.449747 5.372522,-2.625 11.999865,-2.625 6.627342,0 11.999865,1.175253 11.999865,2.625 z"/><path id="path3337" d="M 1.127418,17.750209 C 7.1929793,18.394101 3.076485,11.886958 9.783851,8.8564678 L 12.24093,16.492258 C 9.4289444,14.587081 8.5051873,22.648075 1.0908278,18.441365 z" style="opacity:.44444442;fill:url(#linearGradient3100);fill-opacity:1;fill-rule:evenodd;stroke:none;display:inline"/><path id="path3249" d="M 13.263114,17.769977 C 11.207335,18.670899 8.6616875,17.275443 7.5772496,14.65314 6.492811,12.030836 7.2802379,9.174696 9.3360168,8.2737732 11.391795,7.3728496 13.937443,8.7683033 15.021881,11.390608 c 1.084439,2.622304 0.297012,5.478445 -1.758767,6.379369 z" style="fill:url(#radialGradient3097);fill-opacity:1;stroke:none;display:inline"/><path id="path3331" d="M 10.706801,15.162867 8.7209438,14.867485 7.5217149,16.401524 7.1857876,14.399892 5.3728118,13.720303 l 1.7782439,-0.941694 0.078753,-1.954051 1.4349403,1.419634 1.861646,-0.528079 -0.8913997,1.819075 1.0718097,1.627679 z" style="fill:#fff;fill-opacity:1;stroke:none;display:inline"/><path id="path3333" d="M 6.5404943,19.97454 5.7103885,18.9002 4.3794144,19.049895 5.1845991,17.95813 4.6253713,16.786179 l 1.3277365,0.399592 0.9853531,-0.874 0.015402,1.338726 1.1682079,0.63179 -1.318217,0.427786 -0.2633597,1.264467 z" style="fill:#fff;fill-opacity:1;stroke:none;display:inline"/><g id="g4198" transform="matrix(1.1561335,-0.66749395,0.56482751,0.97830994,1.3472741,-0.45209801)"><path id="rect3174" d="m 0.5,18 0,12.4375 C 0.5,31.0192 0.797334,31.5 1.166667,31.5 l 0.666667,0 C 2.202667,31.5 2.5,31.0192 2.5,30.4375 L 2.5,18 l -2,0 z" style="color:#000;fill:url(#linearGradient4203);fill-opacity:1;fill-rule:evenodd;stroke:none;stroke-width:2;marker:none;visibility:visible;display:inline;overflow:visible;enable-background:accumulate"/><rect id="rect3174-8" width="2" height="21" x=".5" y="10.5" rx=".749" ry=".929" style="opacity:.3;color:#000;fill:none;stroke:#000;stroke-width:.81430745;stroke-miterlimit:4;stroke-opacity:1;stroke-dasharray:none;marker:none;visibility:visible;display:inline;overflow:visible;enable-background:accumulate"/><path id="rect3174-6" d="M 1.166667,10.5 C 0.797334,10.5 0.5,10.9808 0.5,11.5625 l 0,6.4375 2,0 0,-6.4375 C 2.5,10.9808 2.202667,10.5 1.833334,10.5 l -0.666667,0 z" style="color:#000;fill:url(#linearGradient4205);fill-opacity:1;fill-rule:evenodd;stroke:none;stroke-width:2;marker:none;visibility:visible;display:inline;overflow:visible;enable-background:accumulate"/></g></g></svg>