<svg xmlns="http://www.w3.org/2000/svg" xmlns:svg="http://www.w3.org/2000/svg" xmlns:xlink="http://www.w3.org/1999/xlink" id="svg2976" width="24" height="24" version="1.1"><defs id="defs2978"><linearGradient id="linearGradient3844"><stop id="stop3846" offset="0" style="stop-color:#ff1d1d;stop-opacity:1"/><stop id="stop3848" offset=".168" style="stop-color:#ff8a18;stop-opacity:1"/><stop id="stop3850" offset=".319" style="stop-color:#ffe92a;stop-opacity:1"/><stop id="stop3852" offset=".508" style="stop-color:#91ea3a;stop-opacity:1"/><stop id="stop3854" offset=".689" style="stop-color:#1d72e0;stop-opacity:1"/><stop id="stop3856" offset=".873" style="stop-color:#a91ec0;stop-opacity:1"/><stop id="stop3858" offset="1" style="stop-color:#ff0b88;stop-opacity:1"/></linearGradient><linearGradient id="linearGradient3672-0"><stop id="stop3674-1" offset="0" style="stop-color:#000;stop-opacity:1"/><stop id="stop3676-0" offset="1" style="stop-color:#003662;stop-opacity:1"/></linearGradient><linearGradient id="linearGradient3672-2"><stop id="stop3674-6" offset="0" style="stop-color:gray;stop-opacity:1"/><stop id="stop3676-9" offset="1" style="stop-color:#00a0ef;stop-opacity:1"/></linearGradient><linearGradient id="linearGradient3650-0"><stop id="stop3662-3" offset="0" style="stop-color:#2e3436;stop-opacity:1"/><stop id="stop3664-7" offset="1" style="stop-color:#eeeeec;stop-opacity:1"/></linearGradient><linearGradient id="linearGradient3850" x1="2" x2="22" y1="36" y2="36" gradientUnits="userSpaceOnUse" xlink:href="#linearGradient3672-0"/><linearGradient id="linearGradient3852" x1="3.5" x2="28.5" y1="6" y2="6" gradientTransform="matrix(0.76,0,0,1,-0.16,30)" gradientUnits="userSpaceOnUse" xlink:href="#linearGradient3672-2"/><linearGradient id="linearGradient3854" x1="3.5" x2="28.5" y1="6" y2="6" gradientTransform="matrix(0.76,0,0,1,-0.16,36)" gradientUnits="userSpaceOnUse" xlink:href="#linearGradient3650-0"/><linearGradient id="linearGradient3856" x1="3.5" x2="28.5" y1="6" y2="6" gradientTransform="matrix(0.76,0,0,1,-0.16,24)" gradientUnits="userSpaceOnUse" xlink:href="#linearGradient3844"/></defs><metadata id="metadata2981"/><g id="layer1" transform="translate(0,-24)"><path id="path3684" d="m 2.5,40.5 0,4 19,0 0,-4 z" style="fill:url(#linearGradient3854);fill-opacity:1;stroke:none"/><path id="path3692" d="m 2.5,34.5 0,4 19,0 0,-4 z" style="fill:url(#linearGradient3852);fill-opacity:1;stroke:none"/><path id="rect3682" d="m 2.5,40.5 19.000275,0 0,4 L 2.5,44.5 z" style="opacity:.5;fill:none;stroke:#000;stroke-width:1;stroke-miterlimit:4;stroke-opacity:1"/><path id="path3686" d="m 2.5,28.5 0,4 19,0 0,-4 z" style="fill:url(#linearGradient3856);fill-opacity:1;stroke:none"/><path id="rect3678" d="m 2.5,28.499863 19.000275,0 0,4 -19.000275,0 z" style="opacity:.4;fill:none;stroke:#000;stroke-width:1;stroke-miterlimit:4;stroke-opacity:1"/><path id="rect3680" d="m 2.5,34.499863 19.000275,0 0,4 -19.000275,0 z" style="opacity:.5;fill:none;stroke:url(#linearGradient3850);stroke-width:1;stroke-miterlimit:4;stroke-opacity:1"/><path id="rect3826" d="m 3,29 18,0 0,1 -18,0 z" style="opacity:.5;fill:#fff;fill-opacity:1;stroke:none"/><path id="rect3828" d="m 3,35 18,0 0,1 -18,0 z" style="opacity:.5;fill:#fff;fill-opacity:1;stroke:none"/><path id="rect3830" d="m 3,41 18,0 0,1 -18,0 z" style="opacity:.5;fill:#fff;fill-opacity:1;stroke:none"/><path id="rect3826-5" d="m 3,31 18,0 0,1 -18,0 z" style="opacity:.15;fill:#fff;fill-opacity:1;stroke:none"/><path id="rect3828-7" d="m 3,37 18,0 0,1 -18,0 z" style="opacity:.15;fill:#fff;fill-opacity:1;stroke:none"/><path id="rect3830-1" d="m 3,43 18,0 0,1 -18,0 z" style="opacity:.15;fill:#fff;fill-opacity:1;stroke:none"/></g></svg>