<svg xmlns="http://www.w3.org/2000/svg" xmlns:svg="http://www.w3.org/2000/svg" xmlns:xlink="http://www.w3.org/1999/xlink" id="svg4708" width="24" height="24" version="1.1"><defs id="defs4710"><radialGradient id="radialGradient4643" cx="6.703" cy="73.616" r="7.228" fx="6.703" fy="73.616" gradientTransform="matrix(1.6600963,0,0,0.36315008,0.872852,1.641448)" gradientUnits="userSpaceOnUse" xlink:href="#linearGradient10691-3"/><linearGradient id="linearGradient10691-3"><stop id="stop10693-1" offset="0" style="stop-color:#000;stop-opacity:1"/><stop id="stop10695-4" offset="1" style="stop-color:#000;stop-opacity:0"/></linearGradient><linearGradient id="linearGradient4428-9-7" x1="24.1" x2="24.1" y1="10.625" y2="44.42" gradientTransform="matrix(0.45945947,0,0,0.45945947,0.4603578,9.1180975)" gradientUnits="userSpaceOnUse" xlink:href="#linearGradient4094-3-9-3"/><linearGradient id="linearGradient4094-3-9-3"><stop id="stop4096-1-4-9" offset="0" style="stop-color:#fff;stop-opacity:1"/><stop id="stop4098-7-7-6" offset=".02" style="stop-color:#fff;stop-opacity:.23529412"/><stop id="stop4100-0-5-8" offset=".991" style="stop-color:#fff;stop-opacity:.15686275"/><stop id="stop4102-4-3-5" offset="1" style="stop-color:#fff;stop-opacity:.39215687"/></linearGradient><linearGradient id="linearGradient4494" x1="10" x2="10" y1="2" y2="20" gradientTransform="matrix(-1,0,0,-1,24,32)" gradientUnits="userSpaceOnUse" xlink:href="#linearGradient4190-59"/><linearGradient id="linearGradient4190-59"><stop id="stop4192-42" offset="0" style="stop-color:#fad4a1;stop-opacity:1"/><stop id="stop4194-6" offset="1" style="stop-color:#e6b481;stop-opacity:1"/></linearGradient><linearGradient id="linearGradient4428-9" x1="24.1" x2="24.1" y1="6.272" y2="38.919" gradientTransform="matrix(0.45945947,0,0,0.45945947,0.4603578,9.1180975)" gradientUnits="userSpaceOnUse" xlink:href="#linearGradient4094-3-9"/><linearGradient id="linearGradient4094-3-9"><stop id="stop4096-1-4" offset="0" style="stop-color:#fff;stop-opacity:1"/><stop id="stop4098-7-7" offset=".02" style="stop-color:#fff;stop-opacity:.23529412"/><stop id="stop4100-0-5" offset=".991" style="stop-color:#fff;stop-opacity:.15686275"/><stop id="stop4102-4-3" offset="1" style="stop-color:#fff;stop-opacity:.39215687"/></linearGradient><linearGradient id="linearGradient4190"><stop id="stop4192" offset="0" style="stop-color:#fad4a1;stop-opacity:1"/><stop id="stop4194" offset="1" style="stop-color:#e6b481;stop-opacity:1"/></linearGradient><linearGradient id="linearGradient4706" x1="10" x2="10" y1="2" y2="20" gradientTransform="translate(0,8)" gradientUnits="userSpaceOnUse" xlink:href="#linearGradient4190"/></defs><metadata id="metadata4713"/><g id="layer1" transform="translate(0,-8)"><path id="rect4169" d="m 4.5,9.5 0,15 0,3 3,0 15,0 0,-3 -15,0 0,-15 z" style="color:#000;fill:url(#linearGradient4706);fill-opacity:1;fill-rule:nonzero;stroke:none;stroke-width:.99999994;marker:none;visibility:visible;display:inline;overflow:visible;enable-background:accumulate"/><path id="rect4169-5" d="m 4.5,9.5 0,15 0,3 3,0 15,0 0,-3 -15,0 0,-15 z" style="opacity:.5;color:#000;fill:none;stroke:#a1550a;stroke-width:.99999994;stroke-opacity:1;marker:none;visibility:visible;display:inline;overflow:visible;enable-background:accumulate"/><path id="path4537" d="m 22,25.5 -15,0" style="opacity:.5;color:#000;fill:none;stroke:#fff;stroke-width:1;stroke-linecap:butt;stroke-linejoin:round;stroke-miterlimit:4;stroke-opacity:1;stroke-dasharray:none;stroke-dashoffset:0;marker:none;visibility:visible;display:inline;overflow:visible;enable-background:accumulate"/><path id="path4357" d="m 7,10.5 -1.5,0 0,16.5" style="opacity:.5;color:#000;fill:none;stroke:url(#linearGradient4428-9);stroke-width:1;stroke-linecap:butt;stroke-linejoin:miter;stroke-miterlimit:4;stroke-opacity:1;stroke-dasharray:none;stroke-dashoffset:0;marker:none;visibility:visible;display:inline;overflow:visible;enable-background:accumulate"/><path id="rect4169-9" d="m 4,12.5 -2.5,0 0,3 2.5,0 m 4,0 8.5,0 0,15 3,0 0,-15 0,-3 -11.5,0" style="color:#000;fill:url(#linearGradient4494);fill-opacity:1;fill-rule:nonzero;stroke:none;stroke-width:.99999994;marker:none;visibility:visible;display:inline;overflow:visible;enable-background:accumulate"/><path id="rect4169-5-8" d="m 4,12.5 -2.5,0 0,3 2.5,0 m 4,0 8.5,0 0,15 3,0 0,-15 0,-3 -3,0 -8.5,0" style="opacity:.5;color:#000;fill:none;stroke:#a1550a;stroke-width:.99999994;stroke-opacity:1;marker:none;visibility:visible;display:inline;overflow:visible;enable-background:accumulate"/><path id="path10689" d="M 23.999865,28.375 C 23.999865,29.824748 18.627342,31 12,31 5.372657,31 1.35e-4,29.824748 1.35e-4,28.375 1.35e-4,26.925253 5.372657,25.75 12,25.75 c 6.627342,0 11.999865,1.175253 11.999865,2.625 z" style="opacity:.2;fill:url(#radialGradient4643);fill-opacity:1;fill-rule:nonzero;stroke:none;stroke-width:.80000001;marker:none;visibility:visible;display:inline;overflow:visible"/><path id="rect4240" d="M 6,4 6,5 8,5 8,4 z M 6,6 6,7 8,7 8,8 9,8 9,6 8,6 z M 8,8 6,8 6,9 8,9 z m 2,-2 0,2 1,0 0,-2 z m 2,0 0,2 1,0 0,-2 z m 2,0 0,2 1,0 0,-2 z m 2,3 0,1 2,0 0,-1 z m -10,1 0,1 2,0 0,-1 z m 10,1 0,1 2,0 0,-1 z m -10,1 0,1 2,0 0,-1 z m 10,1 0,1 2,0 0,-1 z m -10,1 0,1 2,0 0,-1 z m 12,2 0,-1 -2,0 0,1 m -1,0 0,2 3,0 0,-1 -2,0 0,-1 z m -6,0 0,2 1,0 0,-2 z m 2,0 0,2 1,0 0,-2 z m 2,0 0,2 1,0 0,-2 z m 3,3 0,1 2,0 0,-1 z" transform="translate(0,8)" style="opacity:.3;color:#000;fill:#a1550a;fill-opacity:1;fill-rule:nonzero;stroke:none;stroke-width:1;marker:none;visibility:visible;display:inline;overflow:visible;enable-background:accumulate"/><path style="opacity:.5;color:#000;fill:none;stroke:url(#linearGradient4428-9-7);stroke-width:1;stroke-linecap:butt;stroke-linejoin:round;stroke-miterlimit:4;stroke-opacity:1;stroke-dasharray:none;stroke-dashoffset:0;marker:none;visibility:visible;display:inline;overflow:visible;enable-background:accumulate" id="path4357-2" d="m 2,13.5 2,0 m 4,0 11,0 M 17.53506,30 17.5,15"/></g></svg>